# xmcd CD database file
#
# Track frame offsets:
#	150
#	14520
#	30595
#	49330
#	65547
#	85002
#	102325
#	125225
#	143410
#	162530
#	178340
#	195120
#	210960
#	235305
#	250805
#
# Disc length: 3616 seconds
#
# Revision: 3
# Processed by: cddbd v1.5.2PL0 Copyright (c) Steve Scherf et al.
# Submitted via: CDex 1.51
#
DISCID=cc0e1e0f
DTITLE=Waking Ashland - Composure
DYEAR=2005
DGENRE=Rock
TTITLE0=Shades Of Gray
TTITLE1=I Am For You
TTITLE2=Rumors
TTITLE3=Edinger
TTITLE4=October Skies
TTITLE5=Let Go
TTITLE6=Hands On Deck
TTITLE7=Long Shot
TTITLE8=Silhouettes
TTITLE9=Same Problem
TTITLE10=Medication
TTITLE11=Overjoyed
TTITLE12=Sing Me To Sleep
TTITLE13=The Politics Of Love
TTITLE14=Charity
EXTD=YEAR: 2005
EXTT0=
EXTT1=
EXTT2=
EXTT3=
EXTT4=
EXTT5=
EXTT6=
EXTT7=
EXTT8=
EXTT9=
EXTT10=
EXTT11=
EXTT12=
EXTT13=
EXTT14=
PLAYORDER=
